<svg width="103" height="31" viewBox="0 0 103 31" fill="none" xmlns="http://www.w3.org/2000/svg">
<path d="M67.8086 2.19H70.2986V29.37H67.8086V2.19ZM55.9886 4.29C57.3286 4.29 58.5086 4.68 59.5286 5.46C60.5686 6.22 61.3786 7.31 61.9586 8.73C62.5586 10.15 62.8586 11.82 62.8586 13.74C62.8586 15.66 62.5586 17.33 61.9586 18.75C61.3786 20.17 60.5686 21.27 59.5286 22.05C58.5086 22.83 57.3286 23.22 55.9886 23.22C54.6486 23.22 53.4586 22.83 52.4186 22.05C51.3786 21.27 50.5586 20.17 49.9586 18.75C49.3786 17.33 49.0886 15.66 49.0886 13.74C49.0886 11.82 49.3786 10.15 49.9586 8.73C50.5586 7.31 51.3786 6.22 52.4186 5.46C53.4586 4.68 54.6486 4.29 55.9886 4.29ZM55.9886 6.51C55.0886 6.51 54.2986 6.81 53.6186 7.41C52.9586 7.99 52.4386 8.83 52.0586 9.93C51.6786 11.01 51.4886 12.28 51.4886 13.74C51.4886 15.2 51.6786 16.48 52.0586 17.58C52.4386 18.66 52.9586 19.5 53.6186 20.1C54.2986 20.7 55.0886 21 55.9886 21C56.8686 21 57.6386 20.7 58.2986 20.1C58.9786 19.5 59.5086 18.66 59.8886 17.58C60.2686 16.48 60.4586 15.2 60.4586 13.74C60.4586 12.28 60.2686 11.01 59.8886 9.93C59.5086 8.83 58.9786 7.99 58.2986 7.41C57.6386 6.81 56.8686 6.51 55.9886 6.51ZM90.0663 9.69H96.9363V11.73H90.0663V9.69ZM95.5263 2.22H98.0163V22.11H95.5263V2.22ZM80.7063 26.7H98.7663V28.74H80.7063V26.7ZM80.7063 20.34H83.1663V27.72H80.7063V20.34ZM82.5963 5.58H84.6363V7.77C84.6363 9.41 84.3163 10.96 83.6763 12.42C83.0563 13.86 82.1763 15.12 81.0363 16.2C79.8963 17.26 78.5763 18.08 77.0763 18.66L75.7863 16.65C76.7863 16.29 77.6963 15.81 78.5163 15.21C79.3563 14.61 80.0863 13.92 80.7063 13.14C81.3263 12.36 81.7963 11.51 82.1163 10.59C82.4363 9.67 82.5963 8.73 82.5963 7.77V5.58ZM83.0763 5.58H85.1163V7.77C85.1163 8.93 85.3863 10.06 85.9263 11.16C86.4663 12.26 87.2363 13.24 88.2363 14.1C89.2363 14.94 90.3863 15.59 91.6863 16.05L90.4263 18.03C88.9463 17.49 87.6563 16.71 86.5563 15.69C85.4563 14.65 84.5963 13.45 83.9763 12.09C83.3763 10.73 83.0763 9.29 83.0763 7.77V5.58ZM76.5663 4.41H91.0563V6.45H76.5663V4.41Z" fill="#8A8A8A"/>
<path d="M11.6439 29.5617L0.943867 18.8447C-0.314622 17.5834 -0.314622 15.6956 0.943867 14.4399L11.6439 3.74563C12.8995 2.48997 14.8666 2.43612 16.1138 3.68327C17.3326 4.90208 17.2022 6.95704 16.0174 8.139L10.7907 13.3657C10.7907 13.3657 23.9737 13.3827 23.9793 13.3827C24.8523 13.3827 25.6942 13.7228 26.2922 14.3577C27.7265 15.8883 27.3438 18.5669 25.5071 19.5844C25.0423 19.8424 24.5122 19.9784 23.9794 19.9756L10.7907 19.9643C10.7907 19.9643 16.0146 25.1853 16.0174 25.1882C17.205 26.3758 17.3241 28.4223 16.1138 29.6354C14.8666 30.8826 12.8995 30.8174 11.6439 29.5617Z" fill="#8A8A8A"/>
</svg>
