<svg width="239" height="43" viewBox="0 0 239 43" fill="none" xmlns="http://www.w3.org/2000/svg">
<rect x="0.5" y="0.5" width="238" height="42" stroke="#8A8A8A"/>
<path fill-rule="evenodd" clip-rule="evenodd" d="M33 21.5C33 23.7791 32.1558 25.8486 30.7816 27.375C29.3302 28.9869 27.2877 29.993 25.0239 30H25H24.9761C22.7123 29.993 20.6698 28.9869 19.2184 27.375C17.8442 25.8486 17 23.7791 17 21.5C17 16.8056 20.5817 13 25 13C29.4183 13 33 16.8056 33 21.5ZM29.8489 25.75C28.6961 24.2667 26.9519 23.3214 25 23.3214C23.0481 23.3214 21.3039 24.2667 20.151 25.75C21.3039 27.2332 23.0481 28.1786 25 28.1786C26.9519 28.1786 28.6961 27.2332 29.8489 25.75ZM25.0001 22.1071C26.5781 22.1071 27.8573 20.748 27.8573 19.0714C27.8573 17.3948 26.5781 16.0357 25.0001 16.0357C23.4222 16.0357 22.143 17.3948 22.143 19.0714C22.143 20.748 23.4222 22.1071 25.0001 22.1071Z" fill="#8A8A8A"/>
</svg>