<svg width="239" height="48" viewBox="0 0 239 48" fill="none" xmlns="http://www.w3.org/2000/svg">
<path d="M0 22.5C0 11.4543 8.95431 2.5 20 2.5H219C230.046 2.5 239 11.4543 239 22.5V25.5C239 36.5457 230.046 45.5 219 45.5H20C8.9543 45.5 0 36.5457 0 25.5V22.5Z" fill="#56AB68"/>
<path d="M95.9001 28.822H111.002V30.766H95.9001V28.822ZM102.236 25.654H104.612V29.596H102.236V25.654ZM97.6101 16.996H109.292V22.558H100.004V25.348H97.6281V20.686H106.916V18.904H97.6101V16.996ZM97.6281 24.412H109.67V26.32H97.6281V24.412ZM114.007 17.446H124.555V19.354H114.007V17.446ZM112.459 28.48H127.543V30.424H112.459V28.48ZM123.295 17.446H125.689V19.426C125.689 20.206 125.677 20.998 125.653 21.802C125.641 22.606 125.593 23.464 125.509 24.376C125.437 25.288 125.293 26.32 125.077 27.472L122.683 27.256C122.899 26.188 123.043 25.204 123.115 24.304C123.199 23.404 123.247 22.558 123.259 21.766C123.283 20.962 123.295 20.182 123.295 19.426V17.446ZM140.465 15.934H142.859V27.904H140.465V15.934ZM131.753 30.388H143.291V32.314H131.753V30.388ZM131.753 26.716H134.147V31.18H131.753V26.716ZM133.787 16.996C134.639 16.996 135.407 17.176 136.091 17.536C136.775 17.896 137.315 18.394 137.711 19.03C138.119 19.666 138.323 20.398 138.323 21.226C138.323 22.03 138.119 22.756 137.711 23.404C137.315 24.04 136.775 24.544 136.091 24.916C135.407 25.276 134.639 25.456 133.787 25.456C132.935 25.456 132.167 25.276 131.483 24.916C130.799 24.544 130.253 24.04 129.845 23.404C129.449 22.756 129.251 22.03 129.251 21.226C129.251 20.398 129.449 19.666 129.845 19.03C130.253 18.394 130.799 17.896 131.483 17.536C132.167 17.176 132.935 16.996 133.787 16.996ZM133.787 19.048C133.379 19.048 133.007 19.138 132.671 19.318C132.335 19.486 132.071 19.732 131.879 20.056C131.687 20.368 131.591 20.758 131.591 21.226C131.591 21.67 131.687 22.054 131.879 22.378C132.071 22.69 132.335 22.936 132.671 23.116C133.007 23.284 133.379 23.368 133.787 23.368C134.195 23.368 134.567 23.284 134.903 23.116C135.239 22.936 135.503 22.69 135.695 22.378C135.887 22.054 135.983 21.67 135.983 21.226C135.983 20.758 135.887 20.368 135.695 20.056C135.503 19.732 135.239 19.486 134.903 19.318C134.567 19.138 134.195 19.048 133.787 19.048Z" fill="white"/>
</svg>
