<svg width="36" height="12" viewBox="0 0 36 12" fill="none" xmlns="http://www.w3.org/2000/svg">
<path d="M21.0826 1.076H22.0786V11.948H21.0826V1.076ZM16.3546 1.916C16.8906 1.916 17.3626 2.072 17.7706 2.384C18.1866 2.688 18.5106 3.124 18.7426 3.692C18.9826 4.26 19.1026 4.928 19.1026 5.696C19.1026 6.464 18.9826 7.132 18.7426 7.7C18.5106 8.268 18.1866 8.708 17.7706 9.02C17.3626 9.332 16.8906 9.488 16.3546 9.488C15.8186 9.488 15.3426 9.332 14.9266 9.02C14.5106 8.708 14.1826 8.268 13.9426 7.7C13.7106 7.132 13.5946 6.464 13.5946 5.696C13.5946 4.928 13.7106 4.26 13.9426 3.692C14.1826 3.124 14.5106 2.688 14.9266 2.384C15.3426 2.072 15.8186 1.916 16.3546 1.916ZM16.3546 2.804C15.9946 2.804 15.6786 2.924 15.4066 3.164C15.1426 3.396 14.9346 3.732 14.7826 4.172C14.6306 4.604 14.5546 5.112 14.5546 5.696C14.5546 6.28 14.6306 6.792 14.7826 7.232C14.9346 7.664 15.1426 8 15.4066 8.24C15.6786 8.48 15.9946 8.6 16.3546 8.6C16.7066 8.6 17.0146 8.48 17.2786 8.24C17.5506 8 17.7626 7.664 17.9146 7.232C18.0666 6.792 18.1426 6.28 18.1426 5.696C18.1426 5.112 18.0666 4.604 17.9146 4.172C17.7626 3.732 17.5506 3.396 17.2786 3.164C17.0146 2.924 16.7066 2.804 16.3546 2.804ZM29.9857 4.076H32.7337V4.892H29.9857V4.076ZM32.1697 1.088H33.1657V9.044H32.1697V1.088ZM26.2417 10.88H33.4657V11.696H26.2417V10.88ZM26.2417 8.336H27.2257V11.288H26.2417V8.336ZM26.9977 2.432H27.8137V3.308C27.8137 3.964 27.6857 4.584 27.4297 5.168C27.1817 5.744 26.8297 6.248 26.3737 6.68C25.9177 7.104 25.3897 7.432 24.7897 7.664L24.2737 6.86C24.6737 6.716 25.0377 6.524 25.3657 6.284C25.7017 6.044 25.9937 5.768 26.2417 5.456C26.4897 5.144 26.6777 4.804 26.8057 4.436C26.9337 4.068 26.9977 3.692 26.9977 3.308V2.432ZM27.1897 2.432H28.0057V3.308C28.0057 3.772 28.1137 4.224 28.3297 4.664C28.5457 5.104 28.8537 5.496 29.2537 5.84C29.6537 6.176 30.1137 6.436 30.6337 6.62L30.1297 7.412C29.5377 7.196 29.0217 6.884 28.5817 6.476C28.1417 6.06 27.7977 5.58 27.5497 5.036C27.3097 4.492 27.1897 3.916 27.1897 3.308V2.432ZM24.5857 1.964H30.3817V2.78H24.5857V1.964Z" fill="#131212"/>
<path d="M3.85769 11.1673L0.31271 7.09945C-0.104237 6.62068 -0.104237 5.90415 0.31271 5.42753L3.85769 1.36827C4.2737 0.891664 4.92541 0.871222 5.3386 1.3446C5.7424 1.80723 5.6992 2.58724 5.30668 3.03587L3.57504 5.01978C3.57504 5.01978 7.94265 5.02623 7.94453 5.02623C8.23376 5.02623 8.51266 5.15534 8.71081 5.39633C9.18598 5.9773 9.05921 6.994 8.45068 7.38024C8.29669 7.47815 8.12107 7.52978 7.94454 7.52872L3.57505 7.52441C3.57505 7.52441 5.30575 9.50617 5.30668 9.50724C5.70015 9.95803 5.7396 10.7348 5.33861 11.1953C4.92541 11.6687 4.2737 11.6439 3.85769 11.1673Z" fill="#131212"/>
</svg>