<svg width="239" height="43" viewBox="0 0 239 43" fill="none" xmlns="http://www.w3.org/2000/svg">
<rect x="0.5" y="0.5" width="238" height="42" stroke="#8A8A8A"/>
<path fill-rule="evenodd" clip-rule="evenodd" d="M25 15.2857C24.3249 15.2857 23.6775 15.5265 23.2001 15.9552C22.7227 16.3838 22.4545 16.9652 22.4545 17.5714V18.7143H27.5455V17.5714C27.5455 17.2713 27.4796 16.974 27.3517 16.6967C27.2238 16.4194 27.0363 16.1674 26.7999 15.9552C26.5635 15.7429 26.2829 15.5746 25.9741 15.4597C25.6653 15.3448 25.3343 15.2857 25 15.2857ZM19.9091 17.5714V18.7143C19.4028 18.7143 18.9172 18.8949 18.5592 19.2164C18.2011 19.5379 18 19.9739 18 20.4286V27.2857C18 27.5108 18.0494 27.7338 18.1453 27.9417C18.2413 28.1497 18.3819 28.3387 18.5592 28.4979C18.7364 28.6571 18.9469 28.7834 19.1785 28.8695C19.4101 28.9557 19.6584 29 19.9091 29H30.0909C30.5972 29 31.0828 28.8194 31.4408 28.4979C31.7989 28.1764 32 27.7404 32 27.2857V20.4286C32 19.9739 31.7989 19.5379 31.4408 19.2164C31.0828 18.8949 30.5972 18.7143 30.0909 18.7143V17.5714C30.0909 16.359 29.5545 15.1962 28.5998 14.3389C27.6451 13.4816 26.3502 13 25 13C23.6498 13 22.3549 13.4816 21.4002 14.3389C20.4455 15.1962 19.9091 16.359 19.9091 17.5714ZM25 25.2857C25.4219 25.2857 25.8266 25.1352 26.1249 24.8673C26.4233 24.5994 26.5909 24.236 26.5909 23.8571C26.5909 23.4783 26.4233 23.1149 26.1249 22.847C25.8266 22.5791 25.4219 22.4286 25 22.4286C24.5781 22.4286 24.1734 22.5791 23.8751 22.847C23.5767 23.1149 23.4091 23.4783 23.4091 23.8571C23.4091 24.236 23.5767 24.5994 23.8751 24.8673C24.1734 25.1352 24.5781 25.2857 25 25.2857Z" fill="#8A8A8A"/>
</svg>
